<?xml version="1.0" standalone="no"?><!DOCTYPE svg PUBLIC "-//W3C//DTD SVG 1.1//EN" "http://www.w3.org/Graphics/SVG/1.1/DTD/svg11.dtd"><svg t="1741970722458" class="icon" viewBox="0 0 1024 1024" version="1.1" xmlns="http://www.w3.org/2000/svg" p-id="1693" xmlns:xlink="http://www.w3.org/1999/xlink" width="200" height="200"><path d="M857.7 230.6c-6-8.7-17.9-10.8-26.6-4.9-0.2 0.2-0.4 0.3-0.7 0.5-8.1 6.1-10.1 17.6-4.2 26C849.6 286 862 325.6 862 366.8v238.6c0 36.9-14.5 71.7-40.7 97.8-21.6 21.5-49 35-78.7 39.1l1.1-46.7c43.1-2.4 77.5-38.1 77.5-81.6 0-28-14.2-53.7-37.9-68.8-23.7-15.1-53-17.1-78.5-5.5-66.9 30.6-117.8 85.1-143.4 153.7l-3.6 9.6h-82.5l32.8-66.1c0.3-0.6 0.6-1.2 0.8-1.8 8.4-22.4 5.2-47.5-8.6-67.1-13.7-19.6-36.3-31.3-60.3-31.3-7.7 0-14.6 4.6-17.6 11.6L389 626.7c-2 4.8-2 10.2 0 14.9l26.4 61.4h-85.8l-70.5-138.1c-13.6-26.7-18.6-56.1-14.4-85 16.8-114.7 86.3-213.6 187.7-269.3C443 265.1 472.1 330.4 546 375.3c3.1 1.9 6.6 2.8 10 2.8 6.5 0 12.8-3.2 16.4-9.1 5.5-9 2.7-20.7-6.4-26.2-58.8-35.7-92.2-90.5-99.4-163-3.2-32.2-0.1-60.3 2.5-76.3h87.4c35.8 0 68.5 19.6 85.2 51 0.2 0.5 0.5 0.9 0.8 1.4 0.1 0.1 0.1 0.2 0.2 0.3 0.2 0.3 0.5 0.6 0.7 0.9 0.9 1.2 1.9 2.2 3 3.1 0.3 0.3 0.7 0.5 1.1 0.8 0.1 0.1 0.3 0.2 0.4 0.3 0.3 0.2 0.5 0.3 0.8 0.5 0.3 0.2 0.5 0.3 0.8 0.5 0.1 0.1 0.3 0.1 0.4 0.2 1.7 0.9 3.5 1.5 5.5 1.8 0.4 0.1 0.8 0.1 1.2 0.2h0.3c0.5 0 1.1 0.1 1.6 0.1 46.6 0 92.1 16 128.1 45.2 3.5 2.9 7.8 4.3 12.1 4.3 5.3 0 10.5-2.2 14.3-6.4l0.6-0.6c6.7-8.2 5.4-20.2-2.8-26.8-40-32.3-89.7-51.1-141.2-53.4-24.6-38.2-67-61.4-113.2-61.4h-103c-8.7 0-16.3 5.9-18.5 14.2-0.5 1.7-10.2 39.9-7.4 90.6-55.8 28.1-104.9 68.9-142.7 118.8-39.8 52.4-66.2 114-76.8 178.7-46.8 7.7-82.6 48.2-82.6 96.9 0 10.5 8.6 19 19.2 19s19.2-8.5 19.2-19c0-26.6 17.4-49.2 41.5-57.1 1.1 25.7 7.7 51 19.8 74.6l71.4 139.9L191.2 931c-3 5.9-2.7 12.9 0.8 18.5s9.7 9 16.3 9h472.5c6.6 0 12.8-3.4 16.3-9s3.8-12.6 0.8-18.5L592 720.7l5.3-14.1c22-59 65.9-106 123.5-132.3 13.8-6.3 29.1-5.2 41.9 2.9 12.9 8.2 20.2 21.6 20.2 36.8 0 24.1-19.6 43.6-43.8 43.6-1.6 0-3.3-0.1-5-0.3-0.7-0.1-1.4-0.1-2-0.1h-7c-10.4 0-18.9 8.2-19.1 18.6l-2.1 86.4c-0.1 5.1 1.8 10.1 5.4 13.8 3.6 3.7 8.5 5.7 13.7 5.7 47.4 0 91.9-18.3 125.4-51.7 33.5-33.3 52-77.6 52-124.7V366.8c-0.2-49-14.9-96.1-42.7-136.2z" fill="#2E0C08" p-id="1694"></path><path d="M798.8 214.1c-4.2 0-8.5-1.4-12.1-4.3-36.1-29.1-81.6-45.2-128.1-45.2-0.5 0-1.1 0-1.6-0.1h-0.3c-0.4 0-0.8-0.1-1.2-0.2-1.9-0.3-3.8-0.9-5.5-1.8-0.1-0.1-0.3-0.1-0.4-0.2-0.3-0.2-0.6-0.3-0.8-0.5-0.3-0.2-0.5-0.3-0.8-0.5-0.1-0.1-0.3-0.2-0.4-0.3-0.4-0.3-0.7-0.5-1.1-0.8-1.1-0.9-2.1-2-3-3.1-0.2-0.3-0.5-0.6-0.7-0.9-0.1-0.1-0.1-0.2-0.2-0.3-0.3-0.4-0.6-0.9-0.8-1.4-16.7-31.5-49.4-51-85.2-51h-87.4c-2.6 16-5.7 44.1-2.5 76.3 7.2 72.5 40.6 127.3 99.4 163 9 5.5 11.9 17.2 6.4 26.2-3.6 5.9-9.9 9.1-16.4 9.1-3.4 0-6.8-0.9-10-2.8-73.9-44.9-103-110.1-113.6-164.6C331.1 266.4 261.6 365.3 244.8 480c-4.2 28.9 0.7 58.3 14.4 85l70.4 138h85.8L389 641.6c-2.1-4.8-2.1-10.2 0-14.9l33.4-78.4c3-7 9.9-11.6 17.6-11.6 24 0 46.6 11.7 60.3 31.3 13.7 19.6 16.9 44.7 8.6 67.1-0.2 0.6-0.5 1.2-0.8 1.8L475.3 703h82.5l3.6-9.6c25.6-68.5 76.5-123.1 143.4-153.7 25.5-11.7 54.9-9.6 78.5 5.5 23.7 15.1 37.9 40.8 37.9 68.8 0 43.5-34.4 79.2-77.5 81.6l-1.1 46.7c29.7-4.2 57.1-17.7 78.7-39.1 26.3-26.1 40.7-60.8 40.7-97.8V366.8c0-41.2-12.4-80.8-35.8-114.6-5.8-8.4-3.9-19.9 4.2-26-5.4-6.5-11.1-12.7-17.2-18.5-3.8 4.2-9.1 6.4-14.4 6.4z" fill="#BCE5E5" p-id="1695"></path><path d="M559.4 741.1l28.6 56.7-65.5 30.2-70.8-32.6c-5.1-2.4-11-2.4-16.1 0L364.9 828l-64.2-29.6 28.9-57.3h229.8z" fill="#FBF048" p-id="1696"></path><path d="M468.8 589.8c6.5 9.3 8.1 20.6 4.4 31.2l-27.6 55.5-18.3-42.5 24.4-57.3c6.9 2.4 12.8 6.9 17.1 13.1z" fill="#FFFFFF" p-id="1697"></path><path d="M239.3 920.5l44.3-88 73.3 33.8c5.1 2.4 11 2.4 16.1 0l70.7-32.6 70.8 32.6c2.6 1.2 5.3 1.8 8.1 1.8 2.7 0 5.5-0.6 8.1-1.8l74.5-34.3 44.6 88.6H239.3z" fill="#FFFAB3" p-id="1698"></path><path d="M758 367.9c-10.6 0-19.2 8.5-19.2 19s8.6 19 19.2 19 19.2-8.5 19.2-19c0-10.4-8.6-19-19.2-19z" fill="#2E0C08" p-id="1699"></path></svg>